<svg width="47" height="46" viewBox="0 0 47 46" fill="none" xmlns="http://www.w3.org/2000/svg">
<rect width="47" height="46" rx="10" fill="#E27022"/>
<g clip-path="url(#clip0_972_10)">
<path d="M16.4688 21.7188H32.0938C32.5249 21.7188 32.875 22.0688 32.875 22.5C32.875 22.9312 32.5249 23.2812 32.0938 23.2812H16.4688C16.0376 23.2812 15.6875 22.9312 15.6875 22.5C15.6875 22.0688 16.0376 21.7188 16.4688 21.7188Z" fill="black"/>
<path d="M16.7922 22.5L23.2719 28.9781C23.5774 29.2836 23.5774 29.7789 23.2719 30.0844C22.9664 30.3899 22.4711 30.3899 22.1656 30.0844L15.1344 23.0531C14.9874 22.9066 14.9049 22.7075 14.9049 22.5C14.9049 22.2925 14.9874 22.0934 15.1344 21.9469L22.1656 14.9156C22.4709 14.6103 22.9666 14.6103 23.2719 14.9156C23.5772 15.2209 23.5772 15.7166 23.2719 16.0219L16.7922 22.5Z" fill="black"/>
</g>
<defs>
<clipPath id="clip0_972_10">
<rect width="25" height="25" fill="white" transform="translate(11 10)"/>
</clipPath>
</defs>
</svg>
