<svg width="31" height="25" viewBox="0 0 31 25" fill="none" xmlns="http://www.w3.org/2000/svg">
<path d="M24.3693 11.7188H8.00568C7.55412 11.7188 7.1875 12.0688 7.1875 12.5C7.1875 12.9312 7.55412 13.2812 8.00568 13.2812H24.3693C24.8209 13.2812 25.1875 12.9312 25.1875 12.5C25.1875 12.0688 24.8209 11.7188 24.3693 11.7188Z" fill="white"/>
<path d="M25.2078 12.5L18.7281 18.9781C18.4226 19.2836 18.4226 19.7789 18.7281 20.0844C19.0336 20.3899 19.5289 20.3899 19.8344 20.0844L26.8656 13.0531C27.0126 12.9066 27.0951 12.7075 27.0951 12.5C27.0951 12.2925 27.0126 12.0934 26.8656 11.9469L19.8344 4.91563C19.5291 4.61035 19.0334 4.61035 18.7281 4.91563C18.4228 5.2209 18.4228 5.7166 18.7281 6.02187L25.2078 12.5Z" fill="white"/>
</svg>
