<svg width="70" height="70" viewBox="0 0 70 70" fill="none" xmlns="http://www.w3.org/2000/svg">
<g id="logos:invision-icon">
<g clip-path="url(#clip0_1244_189)">
<path id="Vector" d="M0 0H70V70H0V0Z" fill="#FF0066"/>
<path id="Vector_2" d="M23.8204 22.526C26.0345 22.4937 27.8063 20.6784 27.785 18.4641C27.7634 16.2495 25.9568 14.4689 23.7422 14.4795C21.5277 14.4902 19.7383 16.2881 19.738 18.5026C19.7398 19.0355 19.8471 19.5627 20.0536 20.0539C20.2601 20.5451 20.5618 20.9905 20.9413 21.3646C21.3208 21.7386 21.7706 22.0338 22.2648 22.2332C22.7589 22.4326 23.2876 22.5319 23.8204 22.526ZM15.3559 44.0666C15.1242 45.0573 15.0031 46.0706 14.995 47.0881C14.995 50.6299 16.9156 52.9817 20.998 52.9817C24.3832 52.9817 27.1298 50.9714 29.1041 47.7235L27.8971 52.5675H34.6171L38.4616 37.1675C39.422 33.2641 41.2811 31.2399 44.1035 31.2399C46.3238 31.2399 47.7044 32.6202 47.7044 34.9023C47.7153 35.6338 47.6141 36.3627 47.4047 37.0638L45.425 44.145C45.1418 45.1202 45.0004 46.1311 45.0053 47.1466C45.0053 50.5066 46.985 52.9708 51.1259 52.9708C54.668 52.9708 57.4904 50.6914 59.0501 45.2287L56.4095 44.2066C55.088 47.869 53.9486 48.5296 53.0495 48.5296C52.1507 48.5296 51.6662 47.9308 51.6662 46.7293C51.6922 46.0989 51.7928 45.4739 51.9659 44.8672L53.8895 37.9656C54.3214 36.5466 54.544 35.0722 54.5504 33.589C54.5504 28.4257 51.4283 25.7323 47.6456 25.7323C44.1035 25.7323 40.5029 28.9269 38.7023 32.2899L40.0211 26.2529H29.7589L28.3171 31.5729H33.122L30.1653 43.4002C27.8411 48.5635 23.5741 48.6475 23.0392 48.5272C22.1598 48.3281 21.5998 47.995 21.5998 46.8469C21.6255 45.9175 21.7666 44.9949 22.0198 44.1002L26.5223 26.239H15.1207L13.6816 31.559H18.422L15.3559 44.0666Z" fill="white"/>
</g>
</g>
<defs>
<clipPath id="clip0_1244_189">
<rect width="70" height="70" rx="10" fill="white"/>
</clipPath>
</defs>
</svg>
