<svg width="70" height="70" viewBox="0 0 70 70" fill="none" xmlns="http://www.w3.org/2000/svg">
<g id="arcticons:openai-chatgpt">
<rect width="70" height="70" rx="35" fill="#F6F4F1"/>
<path id="Vector" d="M26.8047 40.7457V19.7457L43.1234 10.3249C52.1651 5.10405 68.3526 17.9811 61.5568 29.7645" stroke="black" stroke-linejoin="round"/>
<path id="Vector_2" d="M26.8047 30.5376L44.9901 20.0376L61.3089 29.4584C70.3505 34.6793 67.288 55.1397 53.6818 55.1397" stroke="black" stroke-linejoin="round"/>
<path id="Vector_3" d="M35.6417 25.4331L53.8271 35.9331V54.7894C53.8271 65.231 34.5771 72.8144 27.7812 61.031" stroke="black" stroke-linejoin="round"/>
<path id="Vector_4" d="M44.4797 30.9165V51.5373L28.161 60.9582C19.1193 66.179 2.9318 53.3019 9.72763 41.5186" stroke="black" stroke-linejoin="round"/>
<path id="Vector_5" d="M44.4797 40.7456L26.2943 51.2456L9.97551 41.8248C0.91926 36.5894 3.98176 16.1436 17.588 16.1436" stroke="black" stroke-linejoin="round"/>
<path id="Vector_6" d="M35.6424 45.85L17.457 35.35V16.4938C17.457 6.05212 36.707 -1.53121 43.5029 10.2521" stroke="black" stroke-linejoin="round"/>
</g>
</svg>
