<svg width="47" height="46" viewBox="0 0 47 46" fill="none" xmlns="http://www.w3.org/2000/svg">
<rect width="47" height="46" rx="10" fill="#E27022"/>
<g clip-path="url(#clip0_919_49)">
<path d="M30.5312 21.7188H14.9062C14.4751 21.7188 14.125 22.0688 14.125 22.5C14.125 22.9312 14.4751 23.2812 14.9062 23.2812H30.5312C30.9624 23.2812 31.3125 22.9312 31.3125 22.5C31.3125 22.0688 30.9624 21.7188 30.5312 21.7188Z" fill="black"/>
<path d="M30.2078 22.5L23.7281 28.9781C23.4226 29.2836 23.4226 29.7789 23.7281 30.0844C24.0336 30.3899 24.5289 30.3899 24.8344 30.0844L31.8656 23.0531C32.0126 22.9066 32.0951 22.7075 32.0951 22.5C32.0951 22.2925 32.0126 22.0934 31.8656 21.9469L24.8344 14.9156C24.5291 14.6103 24.0334 14.6103 23.7281 14.9156C23.4228 15.2209 23.4228 15.7166 23.7281 16.0219L30.2078 22.5Z" fill="black"/>
</g>
<defs>
<clipPath id="clip0_919_49">
<rect width="25" height="25" fill="white" transform="matrix(-1 0 0 1 36 10)"/>
</clipPath>
</defs>
</svg>
